<svg width="25" height="17" viewBox="0 0 25 17" fill="none" xmlns="http://www.w3.org/2000/svg">
<path d="M7.23653 0.00144299C7.91205 -0.0110991 8.5866 0.0581568 9.24548 0.2077C9.80023 0.328816 10.3269 0.554192 10.7976 0.871848C11.2322 1.18772 11.5762 1.61238 11.7948 2.1032C12.0461 2.70675 12.1673 3.35649 12.1506 4.01005C12.1792 4.72767 11.9959 5.43782 11.6236 6.052C11.232 6.63207 10.6907 7.09534 10.0571 7.39267C10.9169 7.62448 11.6659 8.15545 12.1692 8.8901C12.6524 9.66851 12.8952 10.5721 12.8674 11.4879C12.8833 12.218 12.7323 12.9422 12.426 13.6051C12.1428 14.1835 11.7281 14.6875 11.2152 15.0768C10.6872 15.4618 10.0929 15.7467 9.46205 15.9173C8.8078 16.0983 8.13192 16.1892 7.4531 16.1875H0V0.00144299H7.23653ZM6.80649 6.54805C7.33725 6.56992 7.85972 6.41104 8.28845 6.09737C8.49377 5.91459 8.65349 5.68631 8.75484 5.43078C8.85619 5.17525 8.89637 4.89956 8.87215 4.62573C8.88589 4.30591 8.82221 3.9875 8.68652 3.69757C8.57142 3.46673 8.39244 3.2738 8.17088 3.14171C7.94646 2.99631 7.69433 2.89904 7.43042 2.85604C7.14406 2.80057 6.85267 2.77534 6.56104 2.78076H3.37643V6.56248H6.80649V6.54805ZM6.99212 13.4391C7.3131 13.4434 7.63342 13.4088 7.94606 13.336C8.23176 13.2729 8.50272 13.1556 8.74427 12.9905C8.98091 12.8255 9.1721 12.6034 9.30014 12.3449C9.4486 12.0153 9.51681 11.6551 9.49918 11.294C9.53136 10.965 9.48778 10.6329 9.37176 10.3233C9.25575 10.0137 9.07038 9.73472 8.82987 9.50784C8.32011 9.13238 7.69539 8.94638 7.06328 8.98188H3.37643V13.4391H6.99212Z" fill="white"/>
<path d="M17.6761 13.379C17.9411 13.6247 18.2533 13.8139 18.5937 13.9351C18.934 14.0564 19.2955 14.1072 19.6561 14.0844C20.2278 14.0989 20.7884 13.9249 21.2516 13.5894C21.6283 13.3444 21.9136 12.9819 22.0632 12.5581H24.7559C24.469 13.7646 23.7683 14.8323 22.7758 15.5757C21.8236 16.2077 20.6984 16.5277 19.5561 16.4915C18.7409 16.5021 17.9318 16.3489 17.1769 16.0408C16.4941 15.756 15.8817 15.3256 15.3825 14.7795C14.8852 14.2073 14.5031 13.5444 14.2574 12.8273C13.9815 12.0257 13.8465 11.1824 13.8583 10.3347C13.8532 9.50121 13.9928 8.6732 14.2708 7.88744C14.6442 6.78201 15.3582 5.82331 16.3104 5.1489C17.2625 4.47448 18.4038 4.11903 19.5705 4.13355C20.4319 4.11555 21.2837 4.31714 22.0456 4.71932C22.7344 5.09698 23.3285 5.62589 23.7834 6.26625C24.2486 6.93819 24.5822 7.69235 24.7662 8.48868C24.968 9.34378 25.0399 10.2244 24.9796 11.1009H16.9593C16.8943 11.9244 17.1513 12.7411 17.6761 13.379ZM21.1948 7.22329C20.9704 6.9988 20.7004 6.82502 20.4032 6.71365C20.1059 6.60229 19.7882 6.55593 19.4715 6.5777C19.0514 6.56168 18.6343 6.65477 18.2608 6.8479C17.9647 7.01089 17.7034 7.2302 17.4915 7.49348C17.3037 7.74033 17.1638 8.02017 17.079 8.31851C17.0026 8.56734 16.9548 8.82407 16.9366 9.08373H21.9044C21.8611 8.40684 21.6145 7.75878 21.1969 7.22432L21.1948 7.22329Z" fill="white"/>
<path d="M22.5214 1.08203H16.2966V2.67331H22.5214V1.08203Z" fill="white"/>
</svg>
