<svg width="24" height="24" viewBox="0 0 24 24" fill="none" xmlns="http://www.w3.org/2000/svg">
<path fill-rule="evenodd" clip-rule="evenodd" d="M12 0C8.7408 0 8.3328 0.0136 7.0528 0.072C5.7752 0.1304 4.9024 0.3336 4.1392 0.6304C3.3392 0.9312 2.6136 1.4032 2.0136 2.0144C1.40338 2.61371 0.931087 3.3388 0.6296 4.1392C0.3344 4.9024 0.1304 5.776 0.072 7.0536C0.0144 8.3328 0 8.74 0 12C0 15.26 0.0136 15.6672 0.072 16.9472C0.1304 18.2248 0.3336 19.0976 0.6304 19.8608C0.9312 20.6608 1.4032 21.3864 2.0144 21.9864C2.61372 22.5966 3.33881 23.0689 4.1392 23.3704C4.9024 23.6664 5.7752 23.8696 7.0528 23.928C8.3328 23.9864 8.7408 24 12 24C15.2592 24 15.6672 23.9864 16.9472 23.928C18.2248 23.8696 19.0976 23.6664 19.8608 23.3696C20.6608 23.0688 21.3864 22.5968 21.9864 21.9856C22.5966 21.3863 23.0689 20.6612 23.3704 19.8608C23.6664 19.0976 23.8696 18.2248 23.928 16.9472C23.9864 15.6672 24 15.2592 24 12C24 8.7408 23.9864 8.3328 23.928 7.0528C23.8696 5.7752 23.6664 4.9024 23.3696 4.1392C23.0683 3.33845 22.596 2.61306 21.9856 2.0136C21.3863 1.40338 20.6612 0.931087 19.8608 0.6296C19.0976 0.3344 18.224 0.1304 16.9464 0.072C15.6672 0.0144 15.26 0 12 0ZM12 2.1624C15.204 2.1624 15.584 2.1744 16.8496 2.232C18.0192 2.2856 18.6544 2.48 19.0776 2.6456C19.6376 2.8624 20.0376 3.1232 20.4576 3.5424C20.8776 3.9624 21.1376 4.3624 21.3544 4.9224C21.5192 5.3456 21.7144 5.9808 21.768 7.1504C21.8256 8.416 21.8376 8.796 21.8376 12C21.8376 15.204 21.8256 15.584 21.768 16.8496C21.7144 18.0192 21.52 18.6544 21.3544 19.0776C21.1623 19.5988 20.8559 20.0704 20.4576 20.4576C20.0705 20.856 19.5989 21.1624 19.0776 21.3544C18.6544 21.5192 18.0192 21.7144 16.8496 21.768C15.584 21.8256 15.2048 21.8376 12 21.8376C8.7952 21.8376 8.416 21.8256 7.1504 21.768C5.9808 21.7144 5.3456 21.52 4.9224 21.3544C4.40116 21.1623 3.92961 20.8559 3.5424 20.4576C3.14414 20.0704 2.8377 19.5988 2.6456 19.0776C2.4808 18.6544 2.2856 18.0192 2.232 16.8496C2.1744 15.584 2.1624 15.204 2.1624 12C2.1624 8.796 2.1744 8.416 2.232 7.1504C2.2856 5.9808 2.48 5.3456 2.6456 4.9224C2.8624 4.3624 3.1232 3.9624 3.5424 3.5424C3.92955 3.14404 4.40113 2.83758 4.9224 2.6456C5.3456 2.4808 5.9808 2.2856 7.1504 2.232C8.416 2.1744 8.796 2.1624 12 2.1624Z" fill="white"/>
<path fill-rule="evenodd" clip-rule="evenodd" d="M12 16.004C11.4742 16.004 10.9536 15.9005 10.4678 15.6992C9.98198 15.498 9.54058 15.2031 9.16877 14.8313C8.79697 14.4595 8.50204 14.0181 8.30082 13.5323C8.0996 13.0465 7.99603 12.5258 7.99603 12C7.99603 11.4742 8.0996 10.9535 8.30082 10.4678C8.50204 9.98197 8.79697 9.54057 9.16877 9.16877C9.54058 8.79696 9.98198 8.50203 10.4678 8.30081C10.9536 8.09959 11.4742 7.99602 12 7.99602C13.062 7.99602 14.0804 8.41787 14.8313 9.16877C15.5822 9.91966 16.004 10.9381 16.004 12C16.004 13.062 15.5822 14.0804 14.8313 14.8313C14.0804 15.5822 13.062 16.004 12 16.004ZM12 5.83202C10.3642 5.83202 8.79532 6.48186 7.6386 7.63859C6.48187 8.79531 5.83203 10.3642 5.83203 12C5.83203 13.6359 6.48187 15.2047 7.6386 16.3615C8.79532 17.5182 10.3642 18.168 12 18.168C13.6359 18.168 15.2047 17.5182 16.3615 16.3615C17.5182 15.2047 18.168 13.6359 18.168 12C18.168 10.3642 17.5182 8.79531 16.3615 7.63859C15.2047 6.48186 13.6359 5.83202 12 5.83202ZM19.9624 5.72002C19.9624 6.10671 19.8088 6.47756 19.5354 6.75099C19.262 7.02441 18.8911 7.17802 18.5044 7.17802C18.1177 7.17802 17.7469 7.02441 17.4735 6.75099C17.2 6.47756 17.0464 6.10671 17.0464 5.72002C17.0464 5.33334 17.2 4.96249 17.4735 4.68906C17.7469 4.41563 18.1177 4.26202 18.5044 4.26202C18.8911 4.26202 19.262 4.41563 19.5354 4.68906C19.8088 4.96249 19.9624 5.33334 19.9624 5.72002Z" fill="white"/>
</svg>
