<svg width="25" height="22" viewBox="0 0 25 22" fill="none" xmlns="http://www.w3.org/2000/svg">
<path d="M23.8295 8.8855C21.2825 14.3233 15.1415 21.7144 11.2663 21.7144C7.39105 21.7144 6.87539 13.5576 4.79715 8.11983C3.76584 5.4478 3.10955 6.05721 1.17194 7.41667L0 5.90095C2.81266 3.43206 5.62532 0.556899 7.34417 0.40064C9.28178 0.21313 10.485 1.54133 10.9381 4.38524C11.5319 8.13546 12.3601 13.9327 13.7977 13.9327C14.9227 13.9327 17.6885 9.32303 17.8448 7.68231C18.0948 5.27592 16.0634 5.19779 14.3133 5.94783C17.0947 -3.17769 28.6735 -1.49009 23.8295 8.86987V8.8855Z" fill="white"/>
</svg>
